<svg width="112" height="112" viewBox="0 0 112 112" fill="none" xmlns="http://www.w3.org/2000/svg">
<path opacity="0.2" d="M87.5 17.5V94.5H17.5C15.6435 94.5 13.863 93.7625 12.5503 92.4497C11.2375 91.137 10.5 89.3565 10.5 87.5V24.5C10.5 22.6435 11.2375 20.863 12.5503 19.5503C13.863 18.2375 15.6435 17.5 17.5 17.5H87.5Z" fill="url(#paint0_linear_1_783)"/>
<path d="M61.9762 58.4762L44.4762 75.9762C44.1511 76.3014 43.765 76.5594 43.3401 76.7354C42.9153 76.9114 42.4599 77.0019 42 77.0019C41.5401 77.0019 41.0847 76.9114 40.6599 76.7354C40.235 76.5594 39.8489 76.3014 39.5238 75.9762C39.1986 75.6511 38.9406 75.265 38.7646 74.8401C38.5886 74.4153 38.4981 73.9599 38.4981 73.5C38.4981 73.0401 38.5886 72.5847 38.7646 72.1599C38.9406 71.735 39.1986 71.3489 39.5238 71.0238L51.0519 59.5H10.5C9.57174 59.5 8.6815 59.1313 8.02513 58.4749C7.36875 57.8185 7 56.9283 7 56C7 55.0717 7.36875 54.1815 8.02513 53.5251C8.6815 52.8688 9.57174 52.5 10.5 52.5H51.0519L39.5238 40.9763C38.867 40.3195 38.4981 39.4288 38.4981 38.5C38.4981 37.5712 38.867 36.6805 39.5238 36.0237C40.1805 35.367 41.0712 34.9981 42 34.9981C42.9288 34.9981 43.8195 35.367 44.4762 36.0237L61.9762 53.5238C62.3017 53.8488 62.5598 54.2348 62.736 54.6597C62.9121 55.0846 63.0028 55.54 63.0028 56C63.0028 56.46 62.9121 56.9154 62.736 57.3403C62.5598 57.7652 62.3017 58.1512 61.9762 58.4762ZM87.5 14H59.5C58.5717 14 57.6815 14.3687 57.0251 15.0251C56.3687 15.6815 56 16.5717 56 17.5C56 18.4283 56.3687 19.3185 57.0251 19.9749C57.6815 20.6313 58.5717 21 59.5 21H84V91H59.5C58.5717 91 57.6815 91.3687 57.0251 92.0251C56.3687 92.6815 56 93.5717 56 94.5C56 95.4283 56.3687 96.3185 57.0251 96.9749C57.6815 97.6313 58.5717 98 59.5 98H87.5C88.4283 98 89.3185 97.6313 89.9749 96.9749C90.6313 96.3185 91 95.4283 91 94.5V17.5C91 16.5717 90.6313 15.6815 89.9749 15.0251C89.3185 14.3687 88.4283 14 87.5 14Z" fill="url(#paint1_linear_1_783)"/>
<defs>
<linearGradient id="paint0_linear_1_783" x1="38.7333" y1="56" x2="67.5514" y2="56" gradientUnits="userSpaceOnUse">
<stop stop-color="#C440C9"/>
<stop offset="1" stop-color="#5298E0"/>
</linearGradient>
<linearGradient id="paint1_linear_1_783" x1="37.8" y1="56" x2="69.2379" y2="56" gradientUnits="userSpaceOnUse">
<stop stop-color="#C440C9"/>
<stop offset="1" stop-color="#5298E0"/>
</linearGradient>
</defs>
</svg>
