<svg width="112" height="112" viewBox="0 0 112 112" fill="none" xmlns="http://www.w3.org/2000/svg">
<path opacity="0.2" d="M94.5 21V66.5C94.5 67.4283 94.1313 68.3185 93.4749 68.9749C92.8185 69.6313 91.9283 70 91 70H73.5V91C73.5 91.9283 73.1313 92.8185 72.4749 93.4749C71.8185 94.1313 70.9283 94.5 70 94.5H21C20.0717 94.5 19.1815 94.1313 18.5251 93.4749C17.8687 92.8185 17.5 91.9283 17.5 91V45.5C17.5 44.5717 17.8687 43.6815 18.5251 43.0251C19.1815 42.3687 20.0717 42 21 42H38.5V21C38.5 20.0717 38.8687 19.1815 39.5251 18.5251C40.1815 17.8687 41.0717 17.5 42 17.5H91C91.9283 17.5 92.8185 17.8687 93.4749 18.5251C94.1313 19.1815 94.5 20.0717 94.5 21Z" fill="url(#paint0_linear_1_801)"/>
<path d="M98 21V66.5C98 68.3565 97.2625 70.137 95.9497 71.4497C94.637 72.7625 92.8565 73.5 91 73.5H43.4481L47.9762 78.0238C48.3014 78.3489 48.5594 78.735 48.7354 79.1599C48.9114 79.5847 49.0019 80.0401 49.0019 80.5C49.0019 80.9599 48.9114 81.4153 48.7354 81.8401C48.5594 82.265 48.3014 82.6511 47.9762 82.9762C47.6511 83.3014 47.265 83.5594 46.8401 83.7354C46.4153 83.9114 45.9599 84.0019 45.5 84.002C45.0401 84.0019 44.5847 83.9114 44.1599 83.7354C43.735 83.5594 43.3489 83.3014 43.0237 82.9762L32.5237 72.4762C32.1983 72.1512 31.9402 71.7652 31.764 71.3403C31.5879 70.9154 31.4972 70.46 31.4972 70C31.4972 69.54 31.5879 69.0846 31.764 68.6597C31.9402 68.2348 32.1983 67.8488 32.5237 67.5238L43.0237 57.0238C43.6805 56.367 44.5712 55.9981 45.5 55.9981C46.4288 55.9981 47.3195 56.367 47.9762 57.0238C48.633 57.6805 49.0019 58.5712 49.0019 59.5C49.0019 60.4288 48.633 61.3195 47.9762 61.9762L43.4481 66.5H91V21H42V24.5C42 25.4283 41.6313 26.3185 40.9749 26.9749C40.3185 27.6313 39.4283 28 38.5 28C37.5717 28 36.6815 27.6313 36.0251 26.9749C35.3687 26.3185 35 25.4283 35 24.5V21C35 19.1435 35.7375 17.363 37.0503 16.0503C38.363 14.7375 40.1435 14 42 14H91C92.8565 14 94.637 14.7375 95.9497 16.0503C97.2625 17.363 98 19.1435 98 21ZM73.5 84C72.5717 84 71.6815 84.3687 71.0251 85.0251C70.3687 85.6815 70 86.5717 70 87.5V91H21V45.5H68.5519L64.0238 50.0238C63.367 50.6805 62.9981 51.5712 62.9981 52.5C62.9981 53.4288 63.367 54.3195 64.0238 54.9762C64.6805 55.633 65.5712 56.0019 66.5 56.0019C67.4288 56.0019 68.3195 55.633 68.9762 54.9762L79.4762 44.4763C79.8017 44.1512 80.0598 43.7652 80.236 43.3403C80.4121 42.9154 80.5027 42.46 80.5027 42C80.5027 41.54 80.4121 41.0846 80.236 40.6597C80.0598 40.2348 79.8017 39.8488 79.4762 39.5237L68.9762 29.0237C68.3195 28.367 67.4288 27.9981 66.5 27.9981C65.5712 27.9981 64.6805 28.367 64.0238 29.0237C63.367 29.6805 62.9981 30.5712 62.9981 31.5C62.9981 32.4288 63.367 33.3195 64.0238 33.9763L68.5519 38.5H21C19.1435 38.5 17.363 39.2375 16.0503 40.5503C14.7375 41.863 14 43.6435 14 45.5V91C14 92.8565 14.7375 94.637 16.0503 95.9497C17.363 97.2625 19.1435 98 21 98H70C71.8565 98 73.637 97.2625 74.9497 95.9497C76.2625 94.637 77 92.8565 77 91V87.5C77 86.5717 76.6313 85.6815 75.9749 85.0251C75.3185 84.3687 74.4283 84 73.5 84Z" fill="url(#paint1_linear_1_801)"/>
<defs>
<linearGradient id="paint0_linear_1_801" x1="45.7333" y1="56" x2="74.5514" y2="56" gradientUnits="userSpaceOnUse">
<stop stop-color="#C440C9"/>
<stop offset="1" stop-color="#5298E0"/>
</linearGradient>
<linearGradient id="paint1_linear_1_801" x1="44.8" y1="56" x2="76.2379" y2="56" gradientUnits="userSpaceOnUse">
<stop stop-color="#C440C9"/>
<stop offset="1" stop-color="#5298E0"/>
</linearGradient>
</defs>
</svg>
