<svg width="112" height="112" viewBox="0 0 112 112" fill="none" xmlns="http://www.w3.org/2000/svg">
<g opacity="0.2">
<path d="M80.5 42V88.5106L75.8275 81.375C74.7861 79.5817 73.1416 78.2166 71.1873 77.523C69.233 76.8294 67.0958 76.8525 65.157 77.5881C63.2181 78.3238 61.6035 79.7241 60.601 81.5395C59.5986 83.3548 59.2735 85.4672 59.6838 87.5H24.5V42C24.5 41.0717 24.8687 40.1815 25.5251 39.5251C26.1815 38.8687 27.0717 38.5 28 38.5H77C77.9283 38.5 78.8185 38.8687 79.4749 39.5251C80.1313 40.1815 80.5 41.0717 80.5 42Z" fill="black"/>
<path d="M80.5 42V88.5106L75.8275 81.375C74.7861 79.5817 73.1416 78.2166 71.1873 77.523C69.233 76.8294 67.0958 76.8525 65.157 77.5881C63.2181 78.3238 61.6035 79.7241 60.601 81.5395C59.5986 83.3548 59.2735 85.4672 59.6838 87.5H24.5V42C24.5 41.0717 24.8687 40.1815 25.5251 39.5251C26.1815 38.8687 27.0717 38.5 28 38.5H77C77.9283 38.5 78.8185 38.8687 79.4749 39.5251C80.1313 40.1815 80.5 41.0717 80.5 42Z" fill="url(#paint0_linear_1_792)"/>
</g>
<path d="M56 15.4479V55.9998C56 56.9281 55.6312 57.8183 54.9749 58.4747C54.3185 59.1311 53.4283 59.4998 52.5 59.4998C51.5717 59.4998 50.6815 59.1311 50.0251 58.4747C49.3687 57.8183 49 56.9281 49 55.9998V15.4479L40.9763 23.4761C40.6511 23.8013 40.265 24.0592 39.8401 24.2352C39.4153 24.4112 38.9599 24.5018 38.5 24.5018C37.5712 24.5018 36.6805 24.1328 36.0237 23.4761C35.6986 23.1509 35.4406 22.7648 35.2646 22.34C35.0886 21.9151 34.9981 21.4597 34.9981 20.9998C34.9981 20.0711 35.367 19.1803 36.0237 18.5236L50.0237 4.52357C50.3488 4.19816 50.7348 3.94 51.1597 3.76386C51.5846 3.58773 52.04 3.49707 52.5 3.49707C52.96 3.49707 53.4154 3.58773 53.8403 3.76386C54.2652 3.94 54.6512 4.19816 54.9762 4.52357L68.9762 18.5236C69.633 19.1803 70.0019 20.0711 70.0019 20.9998C70.0019 21.9286 69.633 22.8193 68.9762 23.4761C68.3195 24.1328 67.4288 24.5018 66.5 24.5018C65.5712 24.5018 64.6805 24.1328 64.0238 23.4761L56 15.4479ZM84 54.0836V41.9998C84 40.1433 83.2625 38.3628 81.9497 37.0501C80.637 35.7373 78.8565 34.9998 77 34.9998H70C69.0717 34.9998 68.1815 35.3686 67.5251 36.025C66.8687 36.6813 66.5 37.5716 66.5 38.4998C66.5 39.4281 66.8687 40.3183 67.5251 40.9747C68.1815 41.6311 69.0717 41.9998 70 41.9998H77V77.1748C74.9128 75.0426 72.1191 73.7455 69.1433 73.527C66.1676 73.3084 63.2144 74.1835 60.838 75.9879C58.4617 77.7923 56.8256 80.402 56.2369 83.3271C55.6482 86.2522 56.1473 89.2916 57.6406 91.8748L57.7456 92.0411L67.4844 106.916C67.9926 107.693 68.7886 108.236 69.6973 108.426C70.6059 108.616 71.5528 108.437 72.3297 107.929C73.1065 107.421 73.6497 106.625 73.8396 105.716C74.0295 104.807 73.8507 103.86 73.3425 103.084L63.6606 88.3004C62.9743 87.0885 62.7975 85.6535 63.1692 84.3112C63.5409 82.9689 64.4305 81.8293 65.6425 81.1429C66.8545 80.4566 68.2894 80.2798 69.6317 80.6515C70.974 81.0232 72.1137 81.9129 72.8 83.1248C72.8306 83.1817 72.8656 83.2386 72.9006 83.2911L77.5731 90.4267C77.9861 91.0566 78.5913 91.5364 79.2988 91.7949C80.0063 92.0534 80.7783 92.0768 81.5001 91.8616C82.2219 91.6463 82.855 91.204 83.3054 90.6003C83.7558 89.9966 83.9994 89.2637 84 88.5104V62.9998C87.299 66.0536 89.9337 69.754 91.7402 73.8705C93.5467 77.9869 94.4861 82.4313 94.5 86.9267V105C94.5 105.928 94.8687 106.818 95.5251 107.475C96.1815 108.131 97.0717 108.5 98 108.5C98.9283 108.5 99.8185 108.131 100.475 107.475C101.131 106.818 101.5 105.928 101.5 105V86.9092C101.48 80.4256 99.8753 74.0452 96.8251 68.3238C93.775 62.6025 89.3721 57.7138 84 54.0836ZM35 34.9998H28C26.1435 34.9998 24.363 35.7373 23.0503 37.0501C21.7375 38.3628 21 40.1433 21 41.9998V87.4998C21 88.4281 21.3687 89.3183 22.0251 89.9747C22.6815 90.6311 23.5717 90.9998 24.5 90.9998C25.4283 90.9998 26.3185 90.6311 26.9749 89.9747C27.6313 89.3183 28 88.4281 28 87.4998V41.9998H35C35.9283 41.9998 36.8185 41.6311 37.4749 40.9747C38.1313 40.3183 38.5 39.4281 38.5 38.4998C38.5 37.5716 38.1313 36.6813 37.4749 36.025C36.8185 35.3686 35.9283 34.9998 35 34.9998Z" fill="url(#paint1_linear_1_792)"/>
<defs>
<linearGradient id="paint0_linear_1_792" x1="45.0333" y1="63.5053" x2="65.9919" y2="63.5053" gradientUnits="userSpaceOnUse">
<stop stop-color="#C440C9"/>
<stop offset="1" stop-color="#5298E0"/>
</linearGradient>
<linearGradient id="paint1_linear_1_792" x1="50.5167" y1="55.9986" x2="80.6447" y2="55.9986" gradientUnits="userSpaceOnUse">
<stop stop-color="#C440C9"/>
<stop offset="1" stop-color="#5298E0"/>
</linearGradient>
</defs>
</svg>
