<svg width="24" height="24" viewBox="0 0 24 24" fill="none" xmlns="http://www.w3.org/2000/svg">
<path opacity="0.2" d="M3.75 12C3.75 13.6317 4.23385 15.2268 5.14037 16.5835C6.04689 17.9402 7.33537 18.9976 8.84286 19.622C10.3503 20.2464 12.0091 20.4098 13.6095 20.0915C15.2098 19.7732 16.6798 18.9874 17.8336 17.8336C18.9874 16.6798 19.7731 15.2098 20.0915 13.6095C20.4098 12.0092 20.2464 10.3504 19.622 8.84286C18.9976 7.33537 17.9402 6.0469 16.5835 5.14038C15.2267 4.23385 13.6317 3.75 12 3.75C9.81196 3.75 7.71354 4.61919 6.16636 6.16637C4.61919 7.71354 3.75 9.81196 3.75 12Z" fill="#F6F6F6"/>
<path d="M1.50048 5.25013V9.75013C1.50048 9.94905 1.5795 10.1398 1.72015 10.2805C1.8608 10.4211 2.05157 10.5001 2.25048 10.5001H6.75048C6.94939 10.5001 7.14016 10.4211 7.28081 10.2805C7.42146 10.1398 7.50048 9.94905 7.50048 9.75013C7.50048 9.55122 7.42146 9.36046 7.28081 9.2198C7.14016 9.07915 6.94939 9.00013 6.75048 9.00013H4.18173L6.67454 6.71638L6.69798 6.69388C7.74042 5.65184 9.06679 4.94006 10.5114 4.64746C11.956 4.35485 13.4548 4.4944 14.8206 5.04866C16.1863 5.60293 17.3585 6.54734 18.1907 7.76391C19.0228 8.98048 19.478 10.4153 19.4995 11.8891C19.5209 13.3629 19.1076 14.8103 18.3112 16.0506C17.5148 17.2908 16.3706 18.269 15.0216 18.8627C13.6725 19.4565 12.1784 19.6396 10.7259 19.3891C9.27337 19.1387 7.92685 18.4658 6.85454 17.4545C6.70996 17.3178 6.51697 17.244 6.31804 17.2496C6.1191 17.2551 5.93051 17.3395 5.79376 17.484C5.65701 17.6286 5.58329 17.8216 5.58883 18.0205C5.59437 18.2195 5.67871 18.4081 5.82329 18.5448C7.49066 20.1261 9.70252 21.0053 12.0005 21.0001H12.1242C13.5982 20.9799 15.0447 20.598 16.3365 19.8879C17.6283 19.1777 18.7259 18.1612 19.5329 16.9275C20.3398 15.6938 20.8313 14.2808 20.9643 12.8127C21.0972 11.3446 20.8675 9.86628 20.2954 8.50772C19.7232 7.14916 18.8261 5.95194 17.6829 5.02128C16.5396 4.09063 15.1853 3.45504 13.7389 3.17038C12.2925 2.88571 10.7984 2.96069 9.38775 3.38871C7.97713 3.81674 6.69323 4.58471 5.64892 5.62513L3.00048 8.04388V5.25013C3.00048 5.05122 2.92146 4.86046 2.78081 4.7198C2.64016 4.57915 2.44939 4.50013 2.25048 4.50013C2.05157 4.50013 1.8608 4.57915 1.72015 4.7198C1.5795 4.86046 1.50048 5.05122 1.50048 5.25013Z" fill="#F6F6F6"/>
</svg>
